<svg width="148" height="362" viewBox="0 0 148 362" fill="none" xmlns="http://www.w3.org/2000/svg">
<path d="M84.5 358C77.3 363.6 71.5 360.333 69.5 358L15.5 144H128.5L84.5 358Z" fill="#BB672A" stroke="#853D0A"/>
<path d="M17.5 144L1 115L9.5 10L20.4521 45.5L36 18.5L52.875 42.5L57.5 25L67.5 2L83.5 27.5L88.2561 42.5L106.5 10L124.764 36L129 5.5L146.5 95L129 144L119 77.5L124.764 36L106.5 10L88.2561 42.5L103 89L90 144H83.5H57.5H48H30H17.5Z" fill="#62573A"/>
<path d="M30 144V99.5L24 57L23.3062 54.7513M30 144H17.5L1 115L9.5 10L20.4521 45.5M30 144H48M30 144L31.5 101.5L23.3062 54.7513M48 144L39 95L52.875 42.5M48 144H57.5M20.4521 45.5L36 18.5L52.875 42.5M20.4521 45.5L23.3062 54.7513M52.875 42.5L57.5 25L67.5 2L83.5 27.5L88.2561 42.5M88.2561 42.5L103 89L90 144H83.5M88.2561 42.5L106.5 10L124.764 36M124.764 36L129 5.5L146.5 95L129 144L119 77.5L124.764 36ZM57.5 144L52.875 91.5L63 54.7513L92.5 95L83.5 144M57.5 144H83.5" stroke="#252A1D"/>
<path d="M105 7.5L88.5 42L102 90L88.5 143.5H129L119 79L126 31L105 7.5Z" fill="#62573A" stroke="#252A1D"/>
<path d="M27 186C40.5 189 70.9 193.2 84.5 186" stroke="#853D0A"/>
<path d="M34 216C47.5 219 77.9 223.2 91.5 216" stroke="#853D0A"/>
<path d="M41 245C54.5 248 84.9 252.2 98.5 245" stroke="#853D0A"/>
<path d="M46.5 267C57.0652 270.018 80.8565 274.244 91.5 267" stroke="#853D0A"/>
<path d="M52.5 295C61.6565 298.018 82.2757 302.244 91.5 295" stroke="#853D0A"/>
</svg>
