<?xml version="1.0" encoding="UTF-8"?>
<svg xmlns="http://www.w3.org/2000/svg" version="1.1" viewBox="0 0 841.9 595.3">
  <defs>
    <style>
      .cls-1 {
        fill: #fff;
      }

      .cls-2 {
        fill: #5c6a7a;
      }

      .cls-3 {
        fill: none;
        stroke: #fff;
        stroke-miterlimit: 10;
      }

      .cls-4 {
        fill: #8fa9bb;
      }

      .cls-5 {
        fill: #fff2c4;
      }

      .cls-6 {
        fill: #caebfc;
      }

      .cls-7 {
        fill: #456685;
      }

      .cls-8 {
        fill: #5a5b5d;
      }

      .cls-9 {
        fill: #394a56;
      }
    </style>
  </defs>
  <!-- Generator: Adobe Illustrator 28.6.0, SVG Export Plug-In . SVG Version: 1.2.0 Build 709)  -->
  <g>
    <g id="Layer_1">
      <g>
        <g id="background">
          <g>
            <circle class="cls-5" cx="73.5" cy="52.8" r="34.6"/>
            <path class="cls-5" d="M374.5,38.9c0-.6.1-1.2.1-1.9,0-8.7-7.1-15.8-15.8-15.8s-13.1,4.7-15.1,11.1c-1.6-.7-3.4-1.1-5.3-1.1-6.3,0-11.6,4.5-12.8,10.4-.1,0-.2,0-.3,0-7.4,0-13.5,5-13.5,11.2s6,11.2,13.5,11.2,7.5-1.4,10-3.7c2.5,2.3,6,3.7,10,3.7s8.4-1.8,10.9-4.6c2.7,2.2,6.4,3.6,10.5,3.6,8.4,0,15.1-5.8,15.1-13s-3-8.9-7.4-11.1h0Z"/>
            <path class="cls-5" d="M601.2,77.7c-.1,0-.2,0-.3,0-1.5-5.9-7.6-10.4-14.9-10.4s-4.2.4-6.1,1.1c-2.3-6.5-9.3-11.1-17.6-11.1s-18.4,7.1-18.4,15.8,0,1.2.1,1.9c-5.1,2.3-8.6,6.4-8.6,11.1,0,7.2,7.9,13,17.7,13s9-1.4,12.2-3.6c2.9,2.8,7.5,4.6,12.7,4.6s8.8-1.4,11.6-3.7c2.9,2.3,7,3.7,11.6,3.7,8.7,0,15.7-5,15.7-11.2s-7-11.2-15.7-11.2h0Z"/>
            <path class="cls-5" d="M822.1,41.6c0-6.4-5.2-11.6-11.7-11.6s-1.8.1-2.7.3c-2.8-3.5-7.4-5.7-12.6-5.7s-4.2.4-6.1,1.1c-2.3-6.4-9.3-11.1-17.6-11.1s-18.4,7.1-18.4,15.8,0,1.2.1,1.9c-5.1,2.3-8.6,6.4-8.6,11.1s4.7,10.2,11.3,12.1c1.8,4.1,5.9,7,10.7,7s5.8-1.2,7.8-3c2.9,3.9,7.5,6.5,12.8,6.5s6.6-1.1,9.2-3c2,.7,4.3,1.1,6.7,1.1,8.7,0,15.7-5,15.7-11.2s-.2-1.8-.4-2.6c2.3-2.1,3.8-5.2,3.8-8.6h0Z"/>
            <path class="cls-5" d="M207.7,103.7c0-.6.1-1.2.1-1.9,0-8.7-6.4-15.8-14.2-15.8s-11.8,4.7-13.6,11.1c-1.4-.7-3.1-1.1-4.8-1.1-4.1,0-7.6,2.3-9.8,5.7-.7-.2-1.4-.3-2.1-.3-5,0-9,5.2-9,11.7s1.1,6.4,2.9,8.6c-.2.8-.3,1.7-.3,2.6,0,6.2,5.4,11.2,12.2,11.2s3.6-.4,5.2-1.1c2,1.9,4.5,3,7.1,3,4.1,0,7.7-2.6,9.9-6.5,1.6,1.9,3.7,3,6.1,3,3.7,0,6.9-2.9,8.3-7,5.1-1.9,8.7-6.6,8.7-12.1s-2.7-8.9-6.6-11.1h0Z"/>
          </g>
        </g>
        <g id="third">
          <polygon class="cls-4" points="778.9 199.3 778.9 152.4 723.3 152.4 723.3 307.1 714.2 307.1 714.2 100.1 673.1 100.1 673.1 307.1 662.5 307.1 662.5 152.4 623.1 152.4 623.1 118 576.2 118 576.2 152.4 525.4 152.4 525.4 307.1 485.4 307.1 485.4 295.3 514.2 295.3 514.2 124.2 434.8 124.2 434.8 236.5 434.8 295.3 434.8 307.1 397.2 307.1 397.2 84.2 318.9 84.2 318.9 307.1 280.7 307.1 280.7 194.5 280.7 179.5 296.9 179.5 296.9 100.1 222.5 100.1 222.5 179.5 181.3 179.5 181.3 194.5 181.3 307.1 135.4 307.1 135.4 143.6 80.1 143.6 80.1 307.1 61.9 307.1 61.9 111.2 30.1 111.2 30.1 167.1 0 167.1 0 307.1 -7.5 307.1 -7.5 337.7 30.1 337.7 61.9 337.7 318.9 337.7 397.2 337.7 525.4 337.7 662.5 337.7 841.9 337.7 841.9 322.4 841.9 307.1 841.9 199.3 778.9 199.3"/>
        </g>
        <g id="second">
          <g>
            <polygon class="cls-7" points="821.3 224.8 821.3 333.7 786 333.7 786 128.9 771.9 128.9 771.9 107.1 769.5 107.1 769.5 128.9 753.1 128.9 753.1 333.7 744.2 333.7 744.2 236.5 719 209.5 702.5 227.2 702.5 164.8 643.7 164.8 643.7 333.7 626 333.7 626 212.4 618.9 212.4 618.9 203.4 606 203.4 606 194.5 606 184.8 591.1 184.8 591.1 194.5 576.2 194.5 576.2 212.4 553.1 212.4 553.1 199.3 530.1 199.3 530.1 212.4 501.9 212.4 501.9 236.5 476.6 236.5 476.6 137.7 447.8 137.7 447.8 236.5 447.8 333.7 434.8 333.7 434.8 181.8 434.3 181.8 406.6 155.4 378.9 181.8 378.4 181.8 378.4 333.7 321.9 333.7 321.9 155.4 316 155.4 316 149.5 316 137.7 303.6 137.7 303.6 149.5 275.4 149.5 275.4 155.4 271.9 155.4 271.9 204.9 271.1 204.2 231.3 236.5 271.9 236.5 231.3 236.5 231.3 333.7 196.6 333.7 196.6 204.2 196.6 194.5 190.1 194.5 190.1 204.2 181.3 204.2 181.3 194.5 176.3 194.5 176.3 184.8 166.6 184.8 166.6 173 135.4 173 135.4 184.8 116 184.8 116 204.2 116 333.7 82.5 333.7 82.5 241.2 82.5 231.8 67.8 231.8 67.8 241.2 41.3 241.2 41.3 333.7 -7.5 333.7 -7.5 374.3 846 374.3 846 354 851.3 354 851.3 224.8 821.3 224.8"/>
            <rect class="cls-7" x="567.2" y="194.5" width="9" height="9"/>
          </g>
        </g>
        <g id="first">
          <polygon class="cls-2" points="833.7 244.8 833.7 357.1 821.3 357.1 821.3 297.6 813.6 297.6 813.6 286.5 802.5 286.5 802.5 292.1 795.4 292.1 795.4 297.6 792.1 297.6 792.1 293.9 788.3 293.9 788.3 297.6 788.3 321.2 747.5 321.2 747.5 293.9 747.3 293.9 733.8 283.6 720.3 293.9 720.1 293.9 720.1 321.2 701.9 321.2 701.9 251.2 694.8 251.2 694.8 244.8 688.3 244.8 688.3 226.5 688.3 220.1 677.2 220.1 677.2 215.9 668.9 215.9 668.9 226.5 661.3 226.5 661.3 220.1 644.2 220.1 644.2 226.5 644.2 251.2 640.7 251.2 640.7 288.8 595.4 288.8 595.4 202.4 576.2 202.4 576.2 161.8 573.9 161.8 573.9 202.4 553.1 202.4 553.1 337.3 537.2 337.3 537.2 251.2 517.2 251.2 517.2 228.9 476.6 228.9 476.6 251.2 454.2 251.2 454.2 315.6 439.5 315.6 439.5 333.6 402.5 333.6 402.5 208.9 402.5 197.7 373.6 197.7 373.6 208.9 338.4 208.9 296.8 251.2 258.4 251.2 258.4 357.1 217.2 357.1 217.2 273 213.6 273 213.6 260.6 201.3 260.6 201.3 273 194.8 273 194.8 260.6 188.9 260.6 188.9 265.9 177.2 265.9 177.2 273 172.5 273 172.5 315.8 172.3 315.6 144.2 350.2 144.2 283.6 92.5 283.6 92.5 357.1 44.8 357.1 44.8 215.9 25.7 195.1 6.6 215.9 6.6 357.1 -14 357.1 -14 386.5 851.3 386.5 851.3 359.5 851.3 357.1 851.3 244.8 833.7 244.8"/>
        </g>
      </g>
    </g>
    <g id="road">
      <rect class="cls-8" x="-14" y="386.5" width="865.3" height="45"/>
      <rect class="cls-1" x="6.6" y="407" width="99.8" height="4.1"/>
      <rect class="cls-1" x="176.6" y="407" width="99.8" height="4.1"/>
      <rect class="cls-1" x="356.6" y="407" width="99.8" height="4.1"/>
      <rect class="cls-1" x="526.6" y="407" width="99.8" height="4.1"/>
      <rect class="cls-1" x="696.6" y="407" width="99.8" height="4.1"/>
    </g>
    <g id="gym">
      <g>
        <g>
          <rect class="cls-9" x="303.7" y="213.9" width="234.4" height="172.6"/>
          <g>
            <path class="cls-1" d="M407,238.9v3.9c0,3-.7,5.4-2.2,7.2s-3.5,2.6-6,2.6-5.1-1.1-6.6-3.2-2.3-5.2-2.3-9.2.8-7.1,2.3-9.1,3.8-3.1,6.8-3.1,5.8,1.8,7.3,5.4l-5.1,2.1c-.4-.8-.8-1.3-1.2-1.6s-.9-.5-1.5-.5c-1.1,0-1.8.6-2.3,1.7s-.7,3-.7,5.5.3,4.1.8,5.2,1.3,1.7,2.4,1.7c1.8,0,2.7-1.3,2.8-3.8h-2.5v-4.6h8Z"/>
            <path class="cls-1" d="M408.6,228.6h6c1.3,3.4,2.3,6,2.9,7.8h0c.6-1.9,1.5-4.5,2.8-7.8h6.1l-6.3,12.8v10.6h-5.4v-10.6l-6.2-12.8Z"/>
            <path class="cls-1" d="M431,228.6h6.7c1,5.1,1.7,9.4,2.3,13.1l.6-3.6c.2-1.4.5-2.8.8-4.1l1-5.3h6.9l2.7,23.5h-5.3l-1.4-16.1-3.3,16.1h-3.6l-3.4-16.2-1.4,16.2h-5l2.5-23.5Z"/>
          </g>
          <line class="cls-3" x1="303.7" y1="260" x2="538.2" y2="259"/>
          <line class="cls-3" x1="380.3" y1="309.5" x2="461.6" y2="309.5"/>
          <line class="cls-3" x1="380.3" y1="386.5" x2="380.3" y2="309.5"/>
          <line class="cls-3" x1="461.3" y1="386.5" x2="461.3" y2="309.5"/>
          <line class="cls-3" x1="421.3" y1="386.5" x2="421.3" y2="309.5"/>
        </g>
        <g>
          <path class="cls-6" d="M410,302.2v.4c.3-.4.6-.6.9-.6s.6.2.7.6c.2-.2.3-.4.4-.5.1,0,.3-.2.5-.2.5,0,.7.4.7,1.1v2.6h-1v-2.1c0-.4,0-.5-.3-.5s-.3.2-.3.5v2.2h-1v-2.2c0-.1,0-.2,0-.3,0,0-.1-.1-.2-.1s-.2,0-.2.1c0,0,0,.2,0,.3v2.2h-1v-3.6h1Z"/>
          <path class="cls-6" d="M413.5,302.2h1l.2.9c0,.3.2.7.2,1h0c0-.3,0-.5.1-.7l.3-1.3h1l-1.3,5.1h-1l.4-1.5-1-3.6Z"/>
          <path class="cls-6" d="M417.8,302.2v.6h0c.2-.5.5-.7.7-.7s0,0,.2,0v1.1c-.1,0-.2,0-.3,0-.4,0-.5.3-.5.8v1.8h-1v-3.6h.9Z"/>
          <path class="cls-6" d="M419.2,301.1c0-.2,0-.3.2-.4.1-.1.2-.2.4-.2s.3,0,.4.2c.1.1.2.3.2.4s0,.3-.2.4-.2.2-.4.2-.3,0-.4-.2-.2-.3-.2-.4ZM419.2,302.2h1v3.6h-1v-3.6Z"/>
          <path class="cls-6" d="M422.6,305.8v-.5h0c-.1.2-.2.4-.3.5-.1,0-.2.1-.4.1-.3,0-.5-.2-.7-.5-.2-.4-.3-.8-.3-1.4s0-1,.3-1.4c.2-.3.4-.5.7-.5s.3,0,.4.1.2.2.3.4h0v-.5h1v3.6h-1ZM422.6,304c0-.6-.1-.9-.4-.9s-.4.3-.4.9.1.9.4.9.4-.3.4-.9Z"/>
          <path class="cls-6" d="M425.3,302.2v.4c.3-.4.6-.6.9-.6s.6.2.7.6c.2-.2.3-.4.4-.5.1,0,.3-.2.5-.2.5,0,.7.4.7,1.1v2.6h-1v-2.1c0-.4,0-.5-.3-.5s-.3.2-.3.5v2.2h-1v-2.2c0-.1,0-.2,0-.3,0,0-.1-.1-.2-.1s-.2,0-.2.1c0,0,0,.2,0,.3v2.2h-1v-3.6h1Z"/>
        </g>
      </g>
    </g>
  </g>
</svg>